<?xml version="1.0" encoding="UTF-8"?>
<svg id="Layer_1" data-name="Layer 1" xmlns="http://www.w3.org/2000/svg" viewBox="0 0 2048 2048">
  <defs>
    <style>
      .cls-1 {
        fill: #7251b5;
      }

      .cls-2 {
        fill: #000814;
      }
    </style>
  </defs>
  <g id="LOGO_-_Light" data-name="LOGO - Light">
    <path class="cls-2" d="M1835.47,1113.34c45.89-3.94,82.66,13.66,86.45,62.54.08,1.02-.74,1.89-1.76,1.89l-42.66.11c-.87,0-1.6-.64-1.75-1.5-3.13-18.57-15.92-25.4-35-23.67-8.89.81-20.21,9.21-17.79,19.16,2.99,12.23,20.57,14.63,30.85,16.87,17.16,3.96,34.97,7.59,49.81,17.61,23.69,15.99,26.69,50.35,10.07,72.51-12.66,16.88-30.71,23.04-50.91,25.85-.04,0-.09.01-.13.01-45.19,3.75-82.83-15.37-89.73-62.43-.15-1.05.65-1.99,1.71-2.02,14.14-.29,28.76-.13,42.94-.13.79,0,1.47.53,1.69,1.29,5.39,18.25,20.84,24.55,39.04,23.7,12-.56,22.17-8.99,19.21-21.14-3.82-15.67-41.36-16.42-53.87-21.01-8.32-3.04-14.97-4.27-22.32-9.46-24.89-15.45-30.58-52.17-13.47-75.47,11.68-15.91,28.46-21.87,47.47-24.71.05,0,.09-.01.14-.02v.02h.01Z"/>
    <path class="cls-2" d="M1757.39,1193.19c-9.18-49.09-52.39-83.81-102.08-79.82-26.22,3.03-49.68,14.46-66.26,35.4-15.89,20.25-22.98,46.04-19.68,71.56,3.01,25.74,16.33,49.15,36.91,64.89,19.64,15.18,45.66,21.7,70.2,18.52,25.32-3.44,48.23-16.81,63.69-37.16,4.94-6.52,8.03-11.97,11.26-18.56,1.27-2.6-.59-5.65-3.49-5.68l-6.72-.08c-11.87,0-24.79-.24-36.67.06-1.06.03-2.05.49-2.78,1.26-10.1,10.7-20.51,16.74-35.79,17.04-25.79.48-40.87-11.7-48.25-33.99-.84-2.54,1.05-5.18,3.73-5.18l133.14-.37c2.1,0,3.83-1.66,3.93-3.76.37-8.21.41-15.76-1.15-24.11v-.02h.01ZM1675.73,1187.28c-17.09-.14-34.18-.14-51.27.01-2.99.03-4.92-3.16-3.51-5.79,7.93-14.84,16.44-21.42,35.15-25.23.14-.03.29-.05.43-.07,25.31-2.69,40.13,4.79,51.16,25.41,1.4,2.61-.54,5.77-3.51,5.76l-28.45-.1h0Z"/>
    <path class="cls-2" d="M1419.24,1139.19c1.81,2.57,5.54,2.75,7.59.37,37.71-44.08,101.45-34.24,115.39,26.67,4.15,18.12,2.64,40.31,2.64,59.1l-.03,70.99c0,2.66-2.16,4.81-4.82,4.8l-37.11-.14c-2.65,0-4.79-2.16-4.79-4.81l.12-66.74c.03-14.85.65-28.05-1.44-43.35-3.2-23.41-30.44-35.43-49.43-21.98-16.92,11.99-14.65,38.98-14.63,57.32.02,13.2.12,27.4.19,41.08l-.03,33.69c0,2.67-2.18,4.82-4.86,4.8-12.28-.11-24.84.03-37.15.09-2.66.01-4.82-2.14-4.82-4.8l-.13-65.84c.05-24.26,5.99-71.39-31.15-71.16-39.57.25-33.89,45.28-33.83,72.49l.12,64.45c0,2.68-2.18,4.85-4.86,4.81-12.4-.17-25.24,0-37.68.05-2.66.01-4.83-2.14-4.83-4.8l-.24-174.56c0-2.66,2.15-4.81,4.81-4.81h37.85c2.64,0,4.79,2.14,4.8,4.79v1.7c.03,4.02,4.7,6.25,7.82,3.71,9.18-7.44,19.22-11.75,31.76-13.82.15-.02.3-.04.45-.06,28.31-2.4,43.48,4.97,58.29,25.95h0Z"/>
    <path class="cls-2" d="M1190.24,1117.35l-.18,16.78c-19.68-15.95-37.62-23.34-63.59-20.8-25.58,3.4-45.68,13.82-61.65,34.53-16.33,21.02-23.54,47.72-20.03,74.11,3.15,25.34,16.35,48.34,36.64,63.83,18.72,14.6,42.54,21.03,66.06,17.84,11.72-1.56,19.14-4.66,29.41-10.1,5.76-3.71,8.4-5.52,13.61-9.98l.04,17.54h46.97l.08-184.15c-15.36.07-32.12-.18-47.36.4h0ZM1149.94,1257.63c-26.92,5-52.82-12.67-57.99-39.55-5.18-26.88,12.31-52.9,39.16-58.25,27.1-5.41,53.42,12.28,58.65,39.42,5.22,27.14-12.65,53.34-39.82,58.38h0Z"/>
    <path class="cls-2" d="M1017.19,1234.45l.06-114.89c0-1.4-1.13-2.54-2.54-2.54h-42.91c-1.41,0-2.55,1.14-2.54,2.55l.07,9.07c.02,2.09-2.37,3.31-4.05,2.05-18.23-13.67-33.89-18.65-58.27-17.34-86.5,9.1-110.58,121.82-46.85,172.5,17.45,14.1,39.84,20.56,62.11,17.93,16.12-1.88,31.24-8.59,43.4-19.19,1.73-1.51,4.41-.16,4.21,2.13-1.53,17.38-5.14,32.97-20,45.35-22.52,18.74-50.69,14.05-69.58-6.96-.47-.53-1.13-.84-1.84-.85-8.32-.12-37.49-.8-45.75.36-1.11.16-1.98,1-2.16,2.11h0c-.06.34-.04.69.04,1.03,5.3,21.64,17.45,34.33,35.79,46.22,57.74,37.42,141.32,2.2,149.21-67.76,2.68-23.81,1.63-47.89,1.59-71.76h.01,0ZM930.96,1258.06c-27.16,5.32-53.51-12.36-58.87-39.52s12.29-53.52,39.44-58.92c27.2-5.4,53.62,12.29,58.99,39.49,5.37,27.21-12.36,53.61-39.57,58.95h.01Z"/>
    <path class="cls-2" d="M1627.6,869.93l32.32.22c5.05.04,8.52,5.08,6.75,9.8-5.03,13.45-9.98,27.53-14.88,40.77-16.65,42.13-32.55,86.77-48.53,129.46-1.06,2.84-3.77,4.71-6.8,4.71l-31.52.02c-3.01,0-5.7-1.85-6.79-4.66-6.02-15.56-11.76-32.32-17.59-47.87l-45.76-122.45c-1.77-4.75,1.73-9.8,6.8-9.81l32.04-.03c3.14,0,5.92,2.01,6.9,4.99,10.27,31.12,21.98,63.52,32.94,95.24,2.26,6.53,11.51,6.53,13.74-.01,10.9-31.95,22.06-63.81,33.49-95.58,1.04-2.9,3.81-4.83,6.9-4.81h0Z"/>
    <path class="cls-2" d="M1496.86,949.26c-7.57-52.77-56.51-89.4-109.27-81.81-52.74,7.59-89.34,56.49-81.77,109.23,7.57,52.74,56.45,89.37,109.19,81.82,52.77-7.56,89.43-56.47,81.85-109.24h0ZM1408.84,1011.86c-17.71,2.74-35.53-4.26-46.64-18.33s-13.78-33.03-7-49.62,21.97-28.25,39.75-30.52c26.98-3.44,51.72,15.45,55.52,42.38s-14.75,51.93-41.63,56.09Z"/>
    <path class="cls-2" d="M1239.9,795.09l36.08-.08c2.93,0,5.31,2.37,5.31,5.3l-.07,249.33c0,2.92-2.36,5.29-5.28,5.3l-36.01.14c-2.94.01-5.32-2.36-5.32-5.3v-249.39c0-2.92,2.37-5.29,5.29-5.3h0Z"/>
    <path class="cls-2" d="M1195.67,867.23c3.88-.35,7.8-.46,11.7-.56,1.74-.05,3.18,1.35,3.19,3.09l.12,43.27c0,1.67-1.31,3.04-2.97,3.1-14.26.53-28.78,4.34-38.54,15.16-23.42,25.97-17.11,85.2-16.63,120.57.02,1.71-1.34,3.12-3.06,3.14-9.47.13-32.61.69-40.48-.65-1.44-.25-2.49-1.48-2.55-2.94l-.08-2.16-.08-176.06c0-1.71,1.38-3.1,3.09-3.1l40.71-.14c1.72,0,3.11,1.39,3.11,3.1v12.77c0,2.85,3.51,4.18,5.41,2.07,10.46-11.64,18.97-16.07,36.5-20.57.18-.05.36-.08.54-.09h.02Z"/>
    <path class="cls-2" d="M1079.52,924.19c-2.41-72.16-62.99-128.63-135.14-125.96-71.78,2.66-127.89,62.86-125.5,134.65,2.39,71.78,62.39,128.12,134.18,125.99,72.17-2.15,128.86-62.52,126.45-134.68h.01ZM954.87,1009.23c-44.56,3.07-83.13-30.67-86.02-75.24s30.99-83.01,75.58-85.73c44.34-2.7,82.52,30.95,85.4,75.28s-30.63,82.64-74.95,85.69h-.01,0Z"/>
    <path class="cls-1" d="M475.62,756.59c29.9-3.53,57.08,17.62,61.01,47.47,3.93,29.85-16.85,57.31-46.64,61.65-19.63,2.86-39.28-5.07-51.43-20.76-12.15-15.68-14.92-36.7-7.24-54.99,7.67-18.3,24.6-31.05,44.31-33.37h-.01Z"/>
    <path class="cls-1" d="M836.39,717.66c-61.18-27.28-124.89-48.57-190.24-63.54-22.77-5.44-43.41-10.79-66.69-13.62-22.3-2.68-44.79-3.37-67.21-2.07-107.57,7.45-207.52,58.18-277.03,140.61-128.87,150.01-133.72,357.64-76.2,537.68,7.14,22.36,15.58,45.35,22.6,68.23,3.41,11.12,16.78,15.51,26.15,8.62,52.5-38.59,137.69-64.88,197.17-63.72,55.17,1.08,98.3,13.98,146.7,39.43,19.22,10.43,41,23.3,59.91,36.92,7.63,5.5,18.29,3.81,23.71-3.88,7.26-10.29,14.93-19.59,22.53-30.28,28.1-39.53,34.72-90.18,21.97-136.49-9.06-34.96-25.3-49.73-45.38-77.41-6.66-9.18-16.93-27.06-22.41-37.35-27.68-51.9-37.28-88.66-20.34-145.74,5.88-20.29,14.21-39.79,24.8-58.07,48.43-84.7,119.58-121.03,204.8-161.18,5.19-2.45,10.41-4.96,15.64-7.49,12.96-6.26,12.66-24.8-.48-30.66h0ZM636.06,763.84c-.12.1-.24.19-.37.29-109.8,85.61-178.96,248.39-109.91,379.87,16.11,30.68,34.07,61.73,56.04,88.86,10.67,13.17,15.12,26.23,15.8,40.75.49,10.53-10.36,17.76-19.85,13.17-42.41-20.55-78.66-31.34-127.97-40.39-53.58-9.25-111.61-6.46-162.57,12.6-9.2,3.44-17.76,7.22-26.39,11.2-7.3,3.37-15.94-.19-18.72-7.73-16.35-44.38-25.98-90.97-28.55-138.25-12.03-190.92,97.59-377.98,299.37-396.25,6.77-.61,13.41-1.13,20.2-1.53,6.14-.73,17.77.4,24.46.83,26.35,1.69,49.37,6.34,73.29,12.32,11.16,2.79,14.23,17.2,5.15,24.28l.02-.02h0Z"/>
  </g>
</svg>
